<svg width="103" height="31" viewBox="0 0 103 31" fill="none" xmlns="http://www.w3.org/2000/svg">
<g clip-path="url(#clip0_0_1)">
<path d="M28.329 25.4979C30.327 25.5442 33.201 25.5442 34.849 25.4979C34.861 25.3623 34.865 25.2261 34.862 25.09C34.862 23.7599 34 23.0194 31.86 23.0194C29.587 23.0194 28.538 23.705 28.337 25.4979M28.308 26.7235C28.481 28.5215 29.612 29.2774 31.894 29.2774C34.209 29.2774 34.841 28.3946 34.869 27.4725C35.172 27.5033 36.724 27.5033 36.998 27.4725C37.055 29.4522 36.091 31 31.866 31C28.213 31 26.115 29.4436 26.115 26.1338C26.115 22.824 28.256 21.3534 31.876 21.3534C35.614 21.3534 36.993 22.8206 36.993 25.2682C36.993 25.8733 36.965 26.3121 36.936 26.7337C35.945 26.72 34.218 26.72 32.135 26.72L28.308 26.7235ZM21.624 30.6983C21.654 29.4882 21.668 27.8564 21.668 25.8767C21.668 24.1078 20.891 23.4119 18.865 23.4119C16.9674 23.4119 15.4579 24.2689 15.4579 26.3001C15.4579 28.8849 15.4726 29.8807 15.4873 30.6983H13.0422C13.0846 29.3837 13.0846 28.2198 13.0846 26.0276C13.0846 23.5491 13.0699 20.9334 13.0422 19H15.5133C15.4856 20.0421 15.4856 20.858 15.471 21.7956C15.471 22.3852 15.4563 24.4095 15.4416 25.0523L15.5133 25.0677C15.885 23.2868 16.4914 21.4099 19.856 21.4099C22.5 21.4099 24.053 22.5755 24.053 25.2048C24.053 26.3687 24.024 27.0029 24.024 27.7896C24.024 28.818 24.024 29.7539 24.066 30.6915L21.624 30.6983ZM11.355 19C11.342 19.2862 11.342 19.7096 11.342 20.1021C11.342 20.4655 11.342 20.9334 11.355 21.2351C9.7739 21.206 8.2221 21.1906 6.9001 21.1906C6.9001 25.4225 6.9147 29.7607 6.9425 30.7137C6.6164 30.6829 6.0508 30.6829 5.6775 30.6829C5.3042 30.6829 4.7728 30.6829 4.4126 30.7137C4.4566 29.7607 4.4713 25.4379 4.4713 21.1906C3.133 21.1906 1.5812 21.206 0 21.2351C0.0147 20.9334 0.0147018 20.4655 0.0147018 20.1021C0.0147018 19.7096 0.0147 19.3017 0 19H11.355Z" fill="white"/>
<path fill-rule="evenodd" clip-rule="evenodd" d="M75.3464 21.4491C71.8034 21.4491 71.2704 23.3525 71.0194 24.7506L70.9324 24.7198C70.9614 24.0841 70.9744 22.2629 70.9744 21.6135C70.9744 20.5569 70.9744 19.8452 71.0044 19.0007H68.5894C68.6044 20.3714 68.6174 22.4942 68.6174 25.1686C68.6174 27.4953 68.6044 29.188 68.5754 30.6992H70.9744V29.1966L70.9614 28.4171H71.0904C71.2424 29.4107 72.2984 30.8773 75.3184 30.8773C78.2224 30.8773 79.9464 29.2908 79.9464 26.1178C79.9464 22.9448 78.3944 21.4491 75.3464 21.4491ZM82.0764 30.6957C82.1184 28.8214 82.1184 27.0396 82.1184 24.9545C82.1184 22.597 82.1184 21.0413 82.0764 19.0024H84.4774C84.4294 20.6328 84.4304 21.9549 84.4324 23.7899C84.4334 24.1821 84.4334 24.5982 84.4334 25.0453C84.4334 25.5121 84.4334 25.9478 84.4324 26.3625C84.4304 27.9266 84.4284 29.1919 84.4634 30.6992L82.0764 30.6957ZM87.0354 19.7923C87.0354 20.2566 87.2654 20.6489 88.5174 20.6489C89.7554 20.6489 89.9854 20.26 89.9854 19.7923C89.9854 19.3245 89.7554 19.0076 88.5174 19.0076C87.2804 19.0076 87.0354 19.328 87.0354 19.7923ZM101.905 27.252C101.532 27.2747 101.163 27.2115 100.815 27.067V27.2486C100.757 28.3228 99.9244 29.0167 97.6514 29.0167C95.2794 29.0167 94.0874 28.1258 94.0874 26.1041C94.0874 24.1252 95.2794 23.2789 97.6084 23.2789C99.9954 23.2789 100.727 23.8991 100.801 25.0316V25.2132H102.941V24.987C102.941 22.328 101.058 21.36 97.6084 21.36C93.9144 21.36 91.8434 22.9619 91.8434 26.1349C91.8434 29.3079 93.9274 30.999 97.5664 30.999C101.777 30.999 103 29.3525 103 27.252V27.0704C102.778 27.1869 102.427 27.252 101.905 27.252ZM89.7014 21.6375C89.4874 21.7866 89.1264 21.8808 88.5244 21.8808C87.9224 21.8808 87.5464 21.7849 87.3244 21.6324H87.3164V30.6974H89.7034L89.7014 21.6375ZM65.8014 21.6307C65.7594 22.854 65.7594 23.9727 65.7594 26.027C65.7594 28.0059 65.7594 29.4416 65.8014 30.6957H63.3434C63.3484 30.4575 63.3534 30.0921 63.3584 29.6854C63.3694 28.8814 63.3824 27.9161 63.4014 27.4542L63.3154 27.4388L63.3124 27.4541C62.9674 29.0457 62.5674 30.8928 59.0164 30.8928C56.3424 30.8928 54.7884 29.714 54.7884 27.0687C54.7884 26.406 54.7974 25.9227 54.8054 25.4903C54.8124 25.1401 54.8174 24.8231 54.8174 24.4713C54.8174 23.4587 54.8174 22.5524 54.7754 21.6307H57.2324C57.1904 22.83 57.1754 24.5004 57.1754 26.4947C57.1754 28.2629 57.9534 28.9876 59.9794 28.9876C61.8774 28.9876 63.4034 28.1121 63.4034 26.1024C63.4034 23.4896 63.3884 22.4462 63.3744 21.6307H65.8014ZM52.8614 23.1264C52.8614 19.9979 51.0504 19.0024 47.9444 19.0024H41.0004C41.0574 20.5546 41.0574 22.249 41.0574 24.6663C41.0574 27.0836 41.0574 29.0647 41.0004 30.6957H43.6444C43.5874 29.8785 43.5604 28.4804 43.5454 27.2811C45.4434 27.3411 46.4064 27.3411 47.9014 27.3411C51.1074 27.3411 52.8614 26.0715 52.8614 23.1264ZM47.4994 21.0261C49.5564 21.0261 50.4334 21.5693 50.4334 23.1558C50.4334 24.7132 49.6134 25.2871 47.4294 25.2871C46.4324 25.2871 45.4584 25.2758 44.6924 25.2668C44.1964 25.2611 43.7874 25.2563 43.5164 25.2563V21.0724C44.5644 21.0415 46.6834 21.0261 47.4994 21.0261ZM70.9344 28.1566C71.7964 28.7306 72.9604 29.0338 74.3704 29.0338C76.5984 29.0338 77.6474 28.0658 77.6474 26.1332C77.6474 24.2006 76.5554 23.3371 74.4574 23.3525C72.5304 23.3525 70.9344 24.168 70.9344 26.0424V28.1566Z" fill="white"/>
</g>
<path fill-rule="evenodd" clip-rule="evenodd" d="M23.7285 9.20044L23.8243 9.42574C24.2688 10.4702 24.6274 11.3126 24.7474 11.6933H27.7848C26.465 9.29091 24.1022 4.13952 22.832 1.36999C22.5685 0.795631 22.3521 0.323713 22.2017 0H18.4985C17.7367 1.75614 14.4926 8.92804 13 11.6933H15.8339C16.0096 11.2383 16.3859 10.4001 16.8352 9.39946L16.9245 9.20044C18.1156 9.18503 19.4075 9.18503 20.2832 9.18503H20.2853C21.2617 9.18503 22.4951 9.18503 23.7285 9.20044ZM47.2722 10.177C44.7883 10.177 43.9272 9.80525 43.9272 8.8064L43.9337 8.5751C43.5907 8.61673 43.2452 8.63217 42.9001 8.62135C42.5556 8.62473 42.2111 8.60931 41.8681 8.5751C41.8681 8.65252 41.8642 8.72633 41.8605 8.79814C41.8569 8.86618 41.8534 8.93244 41.8534 8.99829C41.8534 10.948 43.2452 11.9452 47.2071 11.9452C51.0112 11.9452 52.3736 10.948 52.3736 9.07366C52.3736 7.29182 51.4555 6.49 47.6808 6.29468C44.5164 6.1422 44.0997 5.76527 44.0997 5.13134C44.0997 4.44602 44.7459 4.10336 46.9987 4.10336C49.3541 4.10336 50.0719 4.49571 50.0719 5.38834V5.65905C50.156 5.65905 50.279 5.65664 50.4218 5.65383C50.6191 5.64995 50.8543 5.64533 51.0763 5.64533C51.4588 5.64533 51.8657 5.65905 52.1099 5.67447C52.1126 5.64005 52.1153 5.60696 52.118 5.57476C52.1283 5.45153 52.1376 5.3413 52.1376 5.22044C52.1376 3.0908 50.4724 2.35065 47.0427 2.35065C43.3249 2.35065 41.9755 3.28783 41.9755 5.11593C41.9755 6.76241 42.9652 7.72873 46.7416 7.91034C49.7985 8.03198 50.2721 8.40377 50.2721 9.0891C50.2721 9.84466 49.5836 10.177 47.2722 10.177ZM75.7903 10.2764C73.5115 10.2764 72.3818 9.52083 72.2093 7.72357H76.0475C78.1294 7.72357 79.8516 7.72359 80.8412 7.73729C80.8705 7.31582 80.8998 6.87721 80.8998 6.27241C80.8998 3.82581 79.5211 2.35923 75.7903 2.35923C72.1719 2.35923 70.02 3.82581 70.02 7.13421C70.02 10.4426 72.1149 11.9983 75.761 11.9983C79.9818 11.9983 80.9422 10.6396 80.8852 8.66077C80.5465 8.69351 80.2064 8.70838 79.8662 8.70532C79.4121 8.70532 79.0621 8.68989 78.761 8.66077C78.7317 9.58081 78.1001 10.2764 75.7903 10.2764ZM88.9181 2.48086C86.0321 2.48086 85.6496 4.78013 85.4868 6.70588L85.3778 6.68189C85.3819 6.41925 85.3862 5.98356 85.391 5.48946C85.4015 4.42032 85.4147 3.07773 85.4347 2.62308H83.2291C83.2584 3.93033 83.2715 5.23585 83.2715 7.18559C83.2715 9.1045 83.2584 10.434 83.2291 11.6882H85.7261C85.6692 10.7818 85.6691 9.05826 85.6691 7.65506C85.6691 5.49287 86.8037 4.69275 88.6398 4.67733C89.3631 4.6554 90.0831 4.78888 90.7558 5.06967C90.7835 4.47515 90.9137 3.35636 91 2.84237C90.3304 2.59885 89.6265 2.47661 88.9181 2.48086ZM67.2834 9.00176C66.869 10.1414 66.5095 11.1297 66.2941 11.6967C65.9491 11.6813 65.4904 11.6813 64.96 11.6813H64.9585C64.3077 11.6813 63.7384 11.6813 63.4943 11.6967C63.1688 10.7304 62.49 8.62992 61.9154 6.74014C61.6859 6.01541 61.4857 5.35066 61.3278 4.80755H61.2692L61.2153 4.99297C61.0635 5.51631 60.8832 6.13827 60.6523 6.77099C60.0647 8.58366 59.3615 10.6396 58.9871 11.6967C58.8534 11.6967 58.6658 11.6907 58.4571 11.6839C58.1959 11.6754 57.9018 11.6659 57.6393 11.6659C57.0354 11.6659 56.6627 11.6813 56.4332 11.6967C56.2059 11.096 55.8767 10.1546 55.5027 9.08508C54.7192 6.84501 53.7393 4.04291 53.0882 2.63163H55.7121C55.883 3.31696 56.788 6.24843 57.3626 8.03026C57.6214 8.78583 57.7923 9.34608 57.9226 9.78297H57.9649C58.0499 9.5467 58.1403 9.26883 58.2441 8.94959C58.339 8.65769 58.4452 8.33119 58.5688 7.9703C59.1564 6.18675 59.9312 3.61336 60.1607 2.63163C60.5057 2.64705 61.2377 2.64705 61.6529 2.64705C62.0419 2.64705 62.5439 2.64705 62.8888 2.63163C63.1183 3.56881 63.8508 6.18675 64.4677 8.03026C64.7249 8.70859 64.9021 9.25297 65.0393 9.67456L65.0846 9.81382H65.1416C65.1673 9.72745 65.194 9.63584 65.2223 9.53862L65.2235 9.53461L65.224 9.53295L65.2248 9.53021C65.3399 9.13522 65.4818 8.64815 65.6869 8.04568C66.2469 6.24842 67.0949 3.50713 67.3147 2.63163H69.6668C69.0901 4.03388 68.0844 6.79918 67.2844 8.99902L67.284 9.0002L67.2834 9.00176ZM37.2209 11.6933C37.2502 10.5146 37.2648 8.86807 37.2648 6.89606C37.2648 5.14334 36.5047 4.40319 34.4651 4.40319C32.5704 4.40319 31.0647 5.25985 31.0647 7.25756C31.0647 9.82752 31.0778 10.8829 31.0924 11.7002H28.6671C28.7094 10.4752 28.7094 9.34266 28.7094 7.30382C28.7094 5.30954 28.6947 3.8892 28.6671 2.63507H31.1087C31.1035 2.88699 31.0983 3.30575 31.0925 3.77178V3.77332V3.77441C31.082 4.61996 31.0695 5.62022 31.0517 6.06168L31.138 6.07709C31.5156 4.42032 32.4727 2.43632 35.4434 2.43632C38.1422 2.43632 39.6495 3.59965 39.6495 6.33409C39.6495 6.98548 39.6405 7.45218 39.6325 7.8695C39.626 8.20713 39.6202 8.51305 39.6202 8.85778C39.6202 9.85493 39.6348 10.7767 39.6641 11.6985L37.2209 11.6933ZM17.4297 8.15513C18.034 6.81703 20.3306 1.43555 20.3306 1.43555L23.2642 8.15513C22.222 8.17226 21.0968 8.17226 20.2824 8.17226H20.2812C19.5157 8.17226 18.4409 8.17226 17.4297 8.15513ZM72.2773 6.49894C74.2743 6.5452 77.1476 6.5452 78.7846 6.49894C78.7974 6.36346 78.8023 6.22728 78.7992 6.09117C78.7992 4.76165 77.9376 4.02148 75.7973 4.02148C73.5267 4.02148 72.4793 4.70682 72.2773 6.49894Z" fill="white"/>
<defs>
<clipPath id="clip0_0_1">
<rect width="103" height="12" fill="white" transform="translate(0 19)"/>
</clipPath>
</defs>
</svg>
